<?xml version="1.0" encoding="UTF-8"?> <svg xmlns="http://www.w3.org/2000/svg" width="193" height="20" viewBox="0 0 193 20" fill="none"><path d="M18.6812 11.1945H24.8293C24.6632 10.4945 24.2602 9.87352 23.6886 9.43669C23.117 8.99986 22.4119 8.77409 21.6929 8.79764C20.9892 8.77937 20.3016 9.00962 19.7508 9.44796C19.2001 9.88629 18.8214 10.5047 18.6812 11.1945ZM28.2598 12.5221C28.2612 12.8588 28.2404 13.1951 28.1974 13.529H18.5921C18.6646 14.2884 19.0276 14.9905 19.6054 15.4886C20.1832 15.9867 20.9311 16.2423 21.6929 16.2021C22.2292 16.2182 22.76 16.0903 23.2301 15.8318C23.7002 15.5732 24.0924 15.1934 24.366 14.7319H27.9747C27.5586 15.867 26.8401 16.8667 25.8968 17.6228C24.9536 18.379 23.8215 18.8628 22.6231 19.022C21.4247 19.1812 20.2056 19.0096 19.0977 18.5258C17.9898 18.0421 17.0352 17.2646 16.3373 16.2775C15.6394 15.2903 15.2247 14.1311 15.1381 12.9253C15.0515 11.7195 15.2963 10.513 15.846 9.43623C16.3957 8.35949 17.2293 7.45357 18.2567 6.81646C19.2842 6.17936 20.4662 5.83533 21.6751 5.82161C22.5545 5.804 23.4282 5.96618 24.2427 6.29818C25.0572 6.63019 25.7954 7.12504 26.4119 7.75239C27.0284 8.37975 27.5103 9.1264 27.8281 9.94658C28.1458 10.7668 28.2927 11.6432 28.2598 12.5221Z" fill="#233857"></path><path d="M49.2308 10.9662V18.9231H45.8003V11.5365C45.8003 9.8435 45.1409 8.94356 43.8935 8.94356C42.3609 8.94356 41.461 10.0752 41.461 12.0622V18.9231H38.1107V11.5365C38.1107 9.85241 37.4692 8.96138 36.2396 8.96138C34.6892 8.96138 33.7625 10.093 33.7625 12.08V18.9409H30.332V6.23483H32.7645L33.4061 7.81196C33.8556 7.23435 34.4295 6.7654 35.085 6.43993C35.7406 6.11446 36.4611 5.94081 37.193 5.93188C37.9324 5.90769 38.6647 6.08369 39.3125 6.44128C39.9602 6.79887 40.4993 7.32477 40.8729 7.96343C41.3176 7.3352 41.9066 6.82282 42.5903 6.46932C43.2741 6.11582 44.0326 5.93152 44.8023 5.93188C47.422 5.93188 49.2575 7.99016 49.2575 10.9662" fill="#233857"></path><path d="M61.5567 12.526C61.5531 11.8426 61.3472 11.1756 60.9648 10.6092C60.5824 10.0429 60.0407 9.60252 59.4081 9.34385C58.7756 9.08518 58.0806 9.01978 57.4109 9.15591C56.7412 9.29203 56.1269 9.62358 55.6455 10.1087C55.1641 10.5938 54.8374 11.2106 54.7064 11.8814C54.5755 12.5521 54.6462 13.2466 54.9098 13.8771C55.1733 14.5076 55.6178 15.0459 56.1871 15.4239C56.7564 15.8019 57.425 16.0028 58.1084 16.001C58.5665 16.0121 59.0221 15.9297 59.4473 15.7586C59.8725 15.5876 60.2583 15.3316 60.5811 15.0063C60.9039 14.681 61.1569 14.2932 61.3247 13.8667C61.4924 13.4403 61.5714 12.984 61.5567 12.526ZM64.9248 6.18186V18.9058H62.2517L61.9576 17.7741C60.8162 18.7634 59.3514 19.2992 57.8411 19.28C56.153 19.1566 54.5742 18.399 53.4218 17.1593C52.2694 15.9197 51.6289 14.2898 51.6289 12.5973C51.6289 10.9047 52.2694 9.27486 53.4218 8.0352C54.5742 6.79553 56.153 6.03791 57.8411 5.91455C59.3754 5.89526 60.862 6.44796 62.0111 7.46494L62.3764 6.25314L64.9248 6.18186Z" fill="#233857"></path><path d="M79.4059 11.232V18.9216H75.9754V11.7934C75.9754 9.85095 75.2448 8.95992 73.7567 8.95992C71.9747 8.95992 70.9054 10.2341 70.9054 12.2745V18.9394H67.5195V6.23337H69.8362L70.5045 7.80158C71.0271 7.20239 71.6742 6.72451 72.4006 6.40132C73.127 6.07813 73.9152 5.91742 74.7101 5.93042C77.606 5.93042 79.4059 8.02434 79.4059 11.232Z" fill="#233857"></path><path d="M102.866 19.2761C99.6847 19.2761 97.5195 17.494 97.5195 14.7407H100.87C100.87 15.8723 101.761 16.4337 102.982 16.4337C103.935 16.4337 104.764 16.006 104.764 15.1595C104.764 14.313 103.668 14.0279 102.322 13.8052C100.3 13.4666 97.7156 12.9141 97.7156 9.92918C97.7156 7.53231 99.756 5.875 102.821 5.875C105.886 5.875 107.9 7.57686 107.909 10.1163H104.657C104.657 9.10052 103.935 8.61046 102.741 8.61046C101.547 8.61046 101.039 9.10053 101.039 9.82226C101.039 10.544 102.126 10.8648 103.436 11.1053C105.512 11.4796 108.15 11.9162 108.15 15.008C108.15 17.592 106.038 19.2761 102.803 19.2761" fill="#D02C2F"></path><path d="M116.597 19.2817C115.707 19.2963 114.823 19.1313 113.998 18.7968C113.173 18.4623 112.424 17.9651 111.795 17.3348C111.166 16.7044 110.671 15.9539 110.339 15.1281C110.006 14.3022 109.844 13.4178 109.861 12.5277C109.846 11.6408 110.011 10.7601 110.346 9.93891C110.682 9.11769 111.18 8.37303 111.811 7.74998C112.443 7.12693 113.194 6.63845 114.02 6.31408C114.845 5.98971 115.728 5.8362 116.615 5.86284C118.135 5.81257 119.623 6.3104 120.807 7.26558C121.991 8.22077 122.793 9.5697 123.066 11.0665H119.662C119.351 10.3617 118.803 9.78792 118.113 9.44414C117.424 9.10037 116.636 9.00822 115.886 9.18362C115.135 9.35902 114.47 9.79096 114.004 10.4048C113.539 11.0186 113.302 11.7758 113.336 12.5456C113.308 12.9946 113.371 13.4446 113.522 13.8686C113.672 14.2926 113.907 14.6819 114.211 15.0131C114.516 15.3442 114.884 15.6105 115.294 15.7959C115.704 15.9812 116.147 16.0819 116.597 16.0919C117.263 16.0972 117.914 15.8962 118.461 15.5165C119.009 15.1368 119.425 14.597 119.653 13.9712H123.11C122.847 15.496 122.045 16.8753 120.849 17.8569C119.653 18.8386 118.143 19.357 116.597 19.3174" fill="#D02C2F"></path><path d="M134.468 11.1945H140.58C140.411 10.4946 140.006 9.87433 139.433 9.43787C138.86 9.00141 138.155 8.77533 137.435 8.79759C136.732 8.77788 136.045 9.00779 135.495 9.44655C134.945 9.8853 134.569 10.5045 134.432 11.1945H134.468ZM143.94 13.5379H134.343C134.414 14.2965 134.775 14.9985 135.351 15.4968C135.927 15.9951 136.674 16.251 137.435 16.211C137.971 16.227 138.502 16.0992 138.972 15.8406C139.442 15.5821 139.835 15.2023 140.108 14.7408H143.717C143.301 15.8758 142.582 16.8755 141.639 17.6317C140.696 18.3879 139.564 18.8717 138.365 19.0309C137.167 19.19 135.948 19.0184 134.84 18.5347C133.732 18.0509 132.777 17.2734 132.08 16.2863C131.382 15.2992 130.967 14.14 130.88 12.9342C130.794 11.7284 131.038 10.5218 131.588 9.44508C132.138 8.36835 132.971 7.46243 133.999 6.82532C135.026 6.18822 136.208 5.8442 137.417 5.83047C138.299 5.80669 139.177 5.96406 139.995 6.29287C140.814 6.62167 141.557 7.1149 142.177 7.74208C142.798 8.36926 143.283 9.11706 143.603 9.93923C143.923 10.7614 144.071 11.6405 144.038 12.5221C144.039 12.8587 144.018 13.1951 143.975 13.529" fill="#D02C2F"></path><path d="M158.039 11.232V18.9216H154.609V11.7934C154.609 9.86877 153.878 8.9421 152.399 8.9421C150.617 8.9421 149.548 10.2163 149.548 12.2567V18.9216H146.117V6.23337H148.47L149.138 7.80158C149.66 7.20239 150.307 6.72451 151.034 6.40132C151.76 6.07813 152.548 5.91742 153.343 5.93042C156.239 5.93042 158.039 8.02434 158.039 11.232Z" fill="#D02C2F"></path><path d="M166.351 19.2815C165.461 19.296 164.577 19.1311 163.752 18.7966C162.927 18.4621 162.177 17.9648 161.549 17.3345C160.92 16.7042 160.425 15.9537 160.093 15.1278C159.76 14.3019 159.598 13.4176 159.614 12.5275C159.6 11.6406 159.765 10.7599 160.1 9.93866C160.435 9.11744 160.934 8.37279 161.565 7.74974C162.197 7.12669 162.948 6.6382 163.773 6.31384C164.599 5.98947 165.482 5.83596 166.368 5.8626C167.889 5.81418 169.376 6.31269 170.559 7.26756C171.743 8.22242 172.545 9.57028 172.82 11.0662H169.416C169.104 10.3615 168.557 9.78768 167.867 9.4439C167.178 9.10012 166.39 9.00797 165.64 9.18338C164.889 9.35878 164.224 9.79071 163.758 10.4046C163.293 11.0184 163.056 11.7756 163.089 12.5453C163.061 12.9947 163.123 13.4452 163.273 13.8698C163.423 14.2943 163.657 14.6841 163.962 15.0155C164.267 15.3469 164.636 15.6132 165.046 15.7981C165.457 15.9831 165.9 16.0829 166.351 16.0916C167.016 16.0956 167.667 15.8941 168.214 15.5146C168.761 15.1351 169.178 14.596 169.407 13.971H172.864C172.601 15.4957 171.799 16.875 170.603 17.8567C169.407 18.8383 167.897 19.3567 166.351 19.3171" fill="#D02C2F"></path><path d="M177.861 11.1944H184.009C183.843 10.4945 183.44 9.87346 182.868 9.43663C182.297 8.9998 181.591 8.77403 180.872 8.79758C180.169 8.7793 179.481 9.00955 178.93 9.44789C178.38 9.88623 178.001 10.5046 177.861 11.1944ZM187.377 13.5379H177.772C177.844 14.2973 178.207 14.9993 178.785 15.4974C179.363 15.9955 180.111 16.2512 180.872 16.2109C181.409 16.227 181.939 16.0992 182.41 15.8406C182.88 15.582 183.272 15.2023 183.546 14.7407H187.11C186.695 15.8792 185.976 16.8824 185.032 17.6416C184.088 18.4009 182.954 18.8872 181.753 19.0479C180.552 19.2085 179.33 19.0375 178.219 18.5532C177.109 18.0689 176.152 17.2898 175.452 16.3005C174.753 15.3111 174.337 14.1492 174.251 12.9406C174.165 11.7321 174.411 10.5229 174.963 9.44432C175.515 8.36571 176.352 7.45873 177.382 6.82169C178.413 6.18466 179.598 5.84186 180.81 5.83046C181.692 5.80675 182.57 5.9641 183.389 6.29281C184.209 6.62151 184.952 7.1146 185.573 7.74164C186.194 8.36868 186.68 9.11637 187.001 9.93856C187.322 10.7608 187.471 11.64 187.439 12.5221C187.441 12.8587 187.42 13.1951 187.377 13.5289" fill="#D02C2F"></path><path d="M13.3792 0.679688H9.94875V6.91689C8.92561 6.21841 7.71247 5.85136 6.47373 5.86548C4.73542 5.92881 3.08943 6.6639 1.88205 7.91608C0.67466 9.16826 0 10.8399 0 12.5794C0 14.3188 0.67466 15.9905 1.88205 17.2427C3.08943 18.4949 4.73542 19.2299 6.47373 19.2933C7.92329 19.307 9.32984 18.8012 10.4388 17.8676L10.8487 18.9191H13.3792V0.679688H9.94875H13.3792ZM6.74995 16.0856C5.82832 16.0856 4.94444 15.7195 4.29275 15.0678C3.64105 14.4161 3.27494 13.5322 3.27494 12.6106C3.27494 11.6889 3.64105 10.8051 4.29275 10.1534C4.94444 9.50167 5.82832 9.13556 6.74995 9.13556C7.67158 9.13556 8.55547 9.50167 9.20716 10.1534C9.85885 10.8051 10.225 11.6889 10.225 12.6106C10.225 13.5322 9.85885 14.4161 9.20716 15.0678C8.55547 15.7195 7.67158 16.0856 6.74995 16.0856Z" fill="#233857"></path><path d="M91.4967 6.9258C90.4701 6.22767 89.2542 5.86074 88.0128 5.87439C86.2745 5.93773 84.6285 6.67281 83.4211 7.92499C82.2137 9.17717 81.5391 10.8488 81.5391 12.5883C81.5391 14.3278 82.2137 15.9994 83.4211 17.2516C84.6285 18.5038 86.2745 19.2389 88.0128 19.3022C89.4664 19.3147 90.8763 18.8058 91.9868 17.8676L92.3967 18.9191H94.9272V0.679688H91.4967V6.9258ZM88.2979 16.0856C87.6099 16.0891 86.9363 15.8883 86.3625 15.5086C85.7887 15.1289 85.3405 14.5875 85.0748 13.9528C84.809 13.3181 84.7376 12.6189 84.8697 11.9436C85.0018 11.2684 85.3313 10.6475 85.8166 10.1597C86.3019 9.67196 86.921 9.33922 87.5956 9.20369C88.2702 9.06815 88.9698 9.13592 89.6058 9.39841C90.2418 9.66089 90.7856 10.1063 91.1682 10.6781C91.5508 11.25 91.7551 11.9225 91.7551 12.6106C91.7699 13.0694 91.6907 13.5264 91.5224 13.9535C91.3541 14.3806 91.1002 14.7688 90.7765 15.0942C90.4527 15.4196 90.0658 15.6754 89.6396 15.8459C89.2134 16.0164 88.7568 16.098 88.2979 16.0856Z" fill="#233857"></path><path d="M128.804 6.23438L125.383 6.26111V18.9226H128.804V6.23438Z" fill="#D02C2F"></path><path d="M125.383 2.80469V6.23515L128.804 2.80469H125.383Z" fill="#05195F"></path><path d="M189.162 7.85661C189.166 7.9661 189.144 8.07501 189.098 8.17422C189.051 8.27343 188.982 8.36007 188.895 8.42687C188.687 8.57332 188.436 8.64551 188.182 8.63181C187.925 8.6388 187.67 8.59017 187.434 8.48924V8.07046C187.56 8.12565 187.692 8.17035 187.826 8.20411C187.951 8.23814 188.079 8.2561 188.209 8.25757C188.346 8.26614 188.483 8.23191 188.601 8.15956C188.64 8.12688 188.671 8.08599 188.693 8.0398C188.715 7.9936 188.726 7.94323 188.726 7.89225C188.725 7.84346 188.715 7.79524 188.695 7.75072C188.675 7.7062 188.646 7.66638 188.61 7.63385C188.466 7.52744 188.307 7.44333 188.138 7.38436C187.939 7.31842 187.761 7.20171 187.621 7.04577C187.514 6.91515 187.457 6.75099 187.46 6.58244C187.456 6.48081 187.476 6.37966 187.518 6.28692C187.56 6.19417 187.622 6.11234 187.701 6.04782C187.891 5.91484 188.12 5.849 188.351 5.8607C188.616 5.86123 188.877 5.91899 189.118 6.03L188.975 6.38641C188.773 6.29646 188.555 6.24509 188.334 6.23494C188.218 6.22726 188.104 6.26213 188.013 6.33295C187.978 6.36242 187.95 6.39936 187.932 6.44102C187.913 6.48267 187.904 6.52797 187.906 6.57353C187.891 6.63197 187.891 6.69329 187.906 6.75173C187.945 6.80992 187.997 6.85863 188.057 6.8943C188.174 6.96429 188.296 7.02392 188.423 7.0725C188.577 7.1323 188.723 7.21005 188.859 7.30417C188.944 7.36866 189.014 7.45073 189.064 7.54475C189.104 7.64412 189.125 7.74976 189.127 7.85661" fill="#D52C5A"></path><path d="M190.668 8.58483L189.893 6.33944C189.893 6.66912 189.893 6.98989 189.893 7.23046V8.54028H189.492V5.86719H190.116L190.855 8.01457L191.622 5.86719H192.245V8.54028H191.827V7.25719C191.827 7.12354 191.827 6.94533 191.827 6.73149C191.817 6.60097 191.817 6.46996 191.827 6.33944L191.016 8.58483H190.624" fill="#D52C5A"></path></svg> 